# xmcd
#
# Track frame offsets: 
#        150
#        12978
#        29571
#        43972
#        59996
#        80005
#        93793
#        110302
#        126523
#
# Disc length: 1893 seconds
#
# Revision: 0
# Processed by: cddbd v1.5.2PL0 Copyright (c) Steve Scherf et al.
# Submitted via: ExactAudioCopy v1.3
#
DISCID=7f076309
DTITLE=Shooter Jennings - Shooter
DYEAR=2018
DGENRE=Country Western
TTITLE0=Bound Ta Git Down
TTITLE1=Do You Love Texas?
TTITLE2=Living In A Minor Key
TTITLE3=D.R.U.N.K.
TTITLE4=Shades and Hues
TTITLE5=I'm Wild and My Woman Is Crazy
TTITLE6=Fast Horses and Good Hideouts
TTITLE7=Rhinestone Eyes
TTITLE8=Denim and Diamonds
EXTD=
EXTT0=
EXTT1=
EXTT2=
EXTT3=
EXTT4=
EXTT5=
EXTT6=
EXTT7=
EXTT8=
PLAYORDER=
